<?xml version="1.0" standalone="no"?>
<!DOCTYPE svg PUBLIC "-//W3C//DTD SVG 20010904//EN"
 "http://www.w3.org/TR/2001/REC-SVG-20010904/DTD/svg10.dtd">
<svg version="1.0" xmlns="http://www.w3.org/2000/svg"
 width="1414.000000pt" height="2000.000000pt" viewBox="0 0 1414.000000 2000.000000"
 preserveAspectRatio="xMidYMid meet">

<g transform="translate(0.000000,2000.000000) scale(0.100000,-0.100000)"
fill="#000000" stroke="none">
<path d="M6335 16399 c-1035 -87 -1981 -388 -2840 -904 -498 -300 -899 -617
-1320 -1046 -477 -486 -842 -996 -1155 -1614 -369 -730 -593 -1504 -670 -2320
-33 -346 -30 -930 5 -1270 125 -1198 556 -2296 1280 -3260 265 -353 619 -731
955 -1020 1047 -901 2361 -1446 3739 -1550 229 -17 792 -20 992 -5 1029 80
1993 388 2884 922 807 484 1540 1191 2068 1993 586 891 924 1843 1043 2940 21
200 30 854 15 1082 -128 1850 -1018 3528 -2486 4689 -210 166 -467 341 -717
487 -863 504 -1808 799 -2807 877 -157 12 -839 11 -986 -1z m-55 -3454 c312
-51 482 -187 571 -457 54 -168 60 -242 68 -973 9 -730 -2 -1936 -19 -2085 -33
-292 -140 -499 -309 -597 -25 -14 -48 -27 -50 -29 -10 -9 51 -114 78 -134 42
-30 112 -50 173 -50 l48 0 0 -226 0 -227 -157 6 c-241 8 -359 47 -476 157 -78
73 -122 145 -163 268 l-32 97 -94 7 c-475 35 -682 192 -763 579 -25 117 -33
362 -40 1144 -8 843 7 1758 29 1900 61 376 245 564 611 621 117 18 410 17 525
-1z m-2150 -435 l0 -290 -360 0 -360 0 0 290 0 290 360 0 360 0 0 -290z m-145
-842 c4 -90 7 -251 8 -358 0 -221 -15 -303 -75 -409 -41 -72 -157 -185 -243
-236 -196 -118 -215 -136 -243 -244 -12 -45 -16 -153 -19 -553 -5 -572 -5
-577 71 -652 57 -57 124 -80 236 -80 148 0 232 47 280 157 31 70 43 265 38
610 l-5 287 269 0 268 0 0 -358 c0 -197 -5 -396 -10 -442 -43 -347 -170 -550
-400 -639 -145 -56 -214 -66 -445 -65 -190 0 -221 3 -320 26 -329 77 -481 257
-524 618 -6 47 -11 285 -13 530 -2 483 5 578 56 727 72 213 133 275 406 418
158 84 181 108 206 225 9 42 21 188 29 335 7 143 14 261 14 263 1 1 93 2 205
2 l204 0 7 -162z m4025 -1248 l0 -910 300 0 300 0 0 910 0 910 285 0 285 0 0
-2090 0 -2090 -285 0 -285 0 0 935 0 935 -300 0 -300 0 0 -935 0 -935 -285 0
-285 0 0 2090 0 2090 285 0 285 0 0 -910z m2507 855 c367 -60 538 -240 582
-615 16 -129 17 -917 2 -1020 -35 -246 -114 -404 -250 -505 -27 -19 -98 -61
-158 -91 -142 -73 -181 -101 -203 -143 -26 -52 -48 -204 -55 -381 -3 -85 -8
-185 -11 -222 l-6 -68 -198 0 -198 0 -7 198 c-17 436 -8 556 52 678 49 100
196 235 333 304 106 54 140 103 162 230 14 84 19 957 5 1021 -13 64 -62 125
-125 156 -52 26 -66 28 -172 28 -98 0 -121 -3 -155 -22 -54 -28 -89 -68 -116
-127 -30 -68 -42 -282 -36 -613 l5 -263 -258 0 -258 0 -7 234 c-18 577 37 858
201 1036 89 95 217 157 378 184 112 19 379 20 493 1z m58 -3710 l0 -280 -347
-3 -348 -2 0 285 0 285 348 -2 347 -3 0 -280z"/>
<path d="M5921 12489 c-110 -19 -180 -77 -215 -177 -24 -66 -36 -577 -36
-1492 0 -914 12 -1386 35 -1468 18 -60 70 -124 125 -152 82 -42 244 -49 341
-15 91 32 149 105 168 210 6 33 16 316 23 630 12 639 -3 2152 -24 2249 -6 28
-19 68 -30 89 -20 41 -88 95 -143 114 -48 17 -181 23 -244 12z"/>
</g>
</svg>
